<?xml version="1.0" encoding="utf-8"?>
<!-- Generator: Adobe Illustrator 22.1.0, SVG Export Plug-In . SVG Version: 6.00 Build 0)  -->
<svg version="1.1" id="Layer_1" xmlns="http://www.w3.org/2000/svg" xmlns:xlink="http://www.w3.org/1999/xlink" x="0px" y="0px"
	 viewBox="0 0 125 125" style="enable-background:new 0 0 125 125;" xml:space="preserve">
<style type="text/css">
	.st0{fill:#3A53A4;fill-opacity:0;stroke:#FFFFFF;stroke-width:4;stroke-linejoin:round;}
	.st1{enable-background:new    ;}
	.st2{fill:#FFFFFF;}
</style>
<path id="Shape_1_copy_8" class="st0" d="M-125.4-51.1L62.3-162.2L250-51.1v226L62.3,286.1L-125.4,175V-51.1z"/>
<g class="st1">
	<path class="st2" d="M15.5,131.2c0-0.8-0.1-1.5-0.4-2.1c-0.2-0.6-0.7-1.2-1.3-1.7c-0.6-0.5-1.4-1-2.5-1.4c-1-0.4-2.4-0.9-4-1.4
		c-1.7-0.5-3.2-1-4.6-1.6s-2.5-1.3-3.5-2.1c-1-0.8-1.7-1.7-2.2-2.7c-0.5-1-0.8-2.2-0.8-3.5s0.3-2.6,0.8-3.7c0.6-1.1,1.3-2.1,2.4-2.9
		s2.2-1.5,3.6-2s3-0.7,4.7-0.7c1.9,0,3.6,0.3,5.1,0.9s2.8,1.3,3.8,2.3c1,1,1.8,2.1,2.3,3.3c0.5,1.2,0.8,2.5,0.8,3.9h-4.5
		c0-1-0.2-1.8-0.5-2.6c-0.3-0.8-0.8-1.5-1.4-2.1c-0.6-0.6-1.4-1.1-2.3-1.4s-2-0.5-3.3-0.5c-1.2,0-2.2,0.1-3.1,0.4s-1.6,0.7-2.2,1.2
		c-0.6,0.5-1,1.1-1.3,1.7c-0.3,0.7-0.4,1.4-0.4,2.2c0,0.7,0.2,1.4,0.5,2s0.8,1.1,1.4,1.6c0.6,0.5,1.5,1,2.5,1.4
		c1,0.4,2.2,0.8,3.6,1.2c1.9,0.5,3.6,1.2,5,1.8c1.4,0.7,2.6,1.4,3.5,2.3s1.6,1.8,2,2.8c0.4,1,0.7,2.2,0.7,3.6c0,1.4-0.3,2.6-0.8,3.8
		c-0.6,1.1-1.4,2.1-2.4,2.9c-1,0.8-2.3,1.4-3.7,1.8s-3.1,0.6-4.9,0.6c-1,0-2.1-0.1-3.1-0.3c-1-0.2-2-0.5-3-0.9s-1.8-0.9-2.7-1.5
		c-0.8-0.6-1.5-1.2-2.1-2s-1.1-1.6-1.4-2.6c-0.3-1-0.5-2-0.5-3.1h4.5c0,1.2,0.2,2.2,0.7,3s1.1,1.5,1.8,2.1c0.8,0.5,1.7,0.9,2.7,1.2
		c1,0.3,2.1,0.4,3.2,0.4c2.4,0,4.2-0.5,5.5-1.5S15.5,132.9,15.5,131.2z"/>
	<path class="st2" d="M52,139.8h-4.5v-15.7H30.3v15.7h-4.5v-34.1h4.5v14.6h17.2v-14.6H52V139.8z"/>
	<path class="st2" d="M86.1,123.9c0,2.6-0.3,4.8-1,6.9c-0.6,2-1.6,3.7-2.7,5.2c-1.2,1.4-2.6,2.5-4.3,3.3c-1.7,0.7-3.6,1.1-5.6,1.1
		c-2,0-3.9-0.4-5.5-1.1c-1.7-0.7-3.1-1.8-4.4-3.3c-1.2-1.4-2.2-3.1-2.8-5.2c-0.7-2-1-4.3-1-6.9v-2.2c0-2.5,0.3-4.8,1-6.9
		c0.7-2,1.6-3.8,2.8-5.2c1.2-1.4,2.6-2.5,4.3-3.3c1.7-0.8,3.5-1.1,5.5-1.1c2.1,0,4,0.4,5.6,1.1c1.7,0.8,3.1,1.8,4.3,3.3
		c1.2,1.4,2.1,3.1,2.8,5.2c0.6,2,1,4.3,1,6.9V123.9z M81.7,121.7c0-2-0.2-3.8-0.6-5.4c-0.4-1.6-1-2.9-1.8-3.9
		c-0.8-1.1-1.8-1.9-2.9-2.4c-1.1-0.5-2.4-0.8-3.9-0.8c-1.4,0-2.7,0.3-3.8,0.8c-1.1,0.5-2.1,1.3-2.9,2.4s-1.4,2.4-1.9,3.9
		c-0.4,1.6-0.7,3.4-0.7,5.4v2.2c0,2,0.2,3.8,0.7,5.4c0.4,1.6,1.1,2.9,1.9,3.9c0.8,1.1,1.8,1.9,2.9,2.4c1.1,0.5,2.4,0.8,3.8,0.8
		c1.5,0,2.8-0.3,3.9-0.8c1.1-0.5,2.1-1.4,2.9-2.4c0.8-1.1,1.4-2.4,1.8-3.9c0.4-1.6,0.6-3.4,0.6-5.4V121.7z"/>
	<path class="st2" d="M97.4,126.5v13.3h-4.5v-34.1h12.6c1.9,0,3.6,0.3,5.1,0.8c1.5,0.5,2.7,1.2,3.7,2.2s1.8,2,2.3,3.3
		c0.5,1.3,0.8,2.7,0.8,4.2c0,1.6-0.3,3.1-0.8,4.4s-1.3,2.4-2.3,3.2c-1,0.9-2.3,1.5-3.7,2c-1.5,0.5-3.2,0.7-5.1,0.7H97.4z
		 M97.4,122.8h8.1c1.3,0,2.4-0.2,3.4-0.5c0.9-0.3,1.7-0.8,2.3-1.4c0.6-0.6,1-1.3,1.3-2.1c0.3-0.8,0.4-1.7,0.4-2.7
		c0-0.9-0.1-1.7-0.4-2.5c-0.3-0.8-0.7-1.5-1.3-2.2c-0.6-0.6-1.4-1.1-2.3-1.5c-0.9-0.4-2.1-0.6-3.4-0.6h-8.1V122.8z"/>
</g>
<g class="st1">
	<path class="st2" d="M-26.1,197.3v-34.1H-15c1.7,0,3.3,0.2,4.7,0.5c1.4,0.4,2.5,0.9,3.5,1.6c1,0.7,1.7,1.7,2.2,2.8
		c0.5,1.1,0.8,2.5,0.8,4.1c0,1.6-0.5,3-1.4,4.2c-0.9,1.2-2.1,2.2-3.7,2.8c1,0.3,1.8,0.7,2.5,1.2s1.4,1.1,1.9,1.8
		c0.5,0.7,0.9,1.5,1.2,2.4c0.3,0.9,0.4,1.8,0.4,2.7c0,1.6-0.3,3-0.8,4.2c-0.5,1.2-1.3,2.3-2.3,3.1c-1,0.8-2.2,1.5-3.6,1.9
		s-2.9,0.6-4.6,0.6H-26.1z M-21.6,177.8h6.8c1,0,1.8-0.1,2.6-0.4c0.8-0.3,1.5-0.6,2-1.1s1-1,1.3-1.7c0.3-0.7,0.5-1.4,0.5-2.3
		c0-1.9-0.5-3.2-1.6-4.1c-1.1-0.8-2.8-1.3-5-1.3h-6.6V177.8z M-21.6,181.4v12.3h7.4c1.1,0,2-0.1,2.9-0.4s1.5-0.7,2.1-1.2
		c0.6-0.5,1-1.2,1.3-1.9c0.3-0.8,0.5-1.6,0.5-2.5s-0.1-1.8-0.4-2.5c-0.2-0.8-0.6-1.4-1.2-1.9c-0.5-0.5-1.2-0.9-2-1.2
		c-0.8-0.3-1.8-0.4-2.9-0.4H-21.6z"/>
	<path class="st2" d="M16.2,183.5h-8v13.8H3.7v-34.1H15c3.8,0,6.8,0.9,8.9,2.6c2.1,1.7,3.1,4.3,3.1,7.6c0,2.1-0.6,4-1.7,5.5
		c-1.1,1.6-2.7,2.8-4.8,3.5l8,14.5v0.3h-4.8L16.2,183.5z M8.2,179.9h6.9c1.2,0,2.3-0.2,3.2-0.5c0.9-0.3,1.7-0.8,2.3-1.4
		c0.6-0.6,1.1-1.2,1.4-2c0.3-0.8,0.5-1.6,0.5-2.5c0-1-0.1-1.9-0.4-2.7c-0.3-0.8-0.7-1.5-1.3-2.1c-0.6-0.6-1.4-1-2.3-1.3
		s-2-0.5-3.3-0.5H8.2V179.9z"/>
	<path class="st2" d="M52,188.4H37.7l-3.2,8.9h-4.6l13-34.1h3.9l13,34.1h-4.6L52,188.4z M39.1,184.7h11.6l-5.8-15.9L39.1,184.7z"/>
	<path class="st2" d="M90.6,197.3h-4.5L69,171.1v26.2h-4.5v-34.1H69l17.2,26.4v-26.4h4.5V197.3z"/>
	<path class="st2" d="M98.6,197.3v-34.1h9.6c2.2,0,4.3,0.4,6.1,1.1c1.8,0.7,3.4,1.8,4.7,3.2c1.3,1.4,2.3,3.1,3.1,5.1
		c0.7,2,1.1,4.2,1.1,6.7v2c0,2.5-0.4,4.7-1.1,6.7c-0.7,2-1.8,3.7-3.1,5s-3,2.4-4.9,3.2c-1.9,0.7-4,1.1-6.4,1.1H98.6z M103.1,167
		v26.7h4.7c1.8,0,3.4-0.3,4.8-0.9c1.4-0.6,2.5-1.4,3.4-2.5s1.6-2.4,2.1-3.9c0.5-1.5,0.7-3.2,0.7-5.1v-2.1c0-1.9-0.2-3.7-0.7-5.2
		s-1.2-2.8-2.1-3.9s-2-1.9-3.3-2.4c-1.3-0.5-2.8-0.8-4.5-0.8H103.1z"/>
	<path class="st2" d="M148.2,188.7c0-0.8-0.1-1.5-0.4-2.1c-0.2-0.6-0.7-1.2-1.3-1.7c-0.6-0.5-1.4-1-2.5-1.4c-1-0.4-2.4-0.9-4-1.4
		c-1.7-0.5-3.2-1-4.6-1.6s-2.5-1.3-3.5-2.1c-1-0.8-1.7-1.7-2.2-2.7c-0.5-1-0.8-2.2-0.8-3.5s0.3-2.6,0.8-3.7c0.6-1.1,1.3-2.1,2.4-2.9
		s2.2-1.5,3.6-2s3-0.7,4.7-0.7c1.9,0,3.6,0.3,5.1,0.9s2.8,1.3,3.8,2.3c1,1,1.8,2.1,2.3,3.3c0.5,1.2,0.8,2.5,0.8,3.9h-4.5
		c0-1-0.2-1.8-0.5-2.6c-0.3-0.8-0.8-1.5-1.4-2.1c-0.6-0.6-1.4-1.1-2.3-1.4s-2-0.5-3.3-0.5c-1.2,0-2.2,0.1-3.1,0.4s-1.6,0.7-2.2,1.2
		c-0.6,0.5-1,1.1-1.3,1.7c-0.3,0.7-0.4,1.4-0.4,2.2c0,0.7,0.2,1.4,0.5,2s0.8,1.1,1.4,1.6c0.6,0.5,1.5,1,2.5,1.4
		c1,0.4,2.2,0.8,3.6,1.2c1.9,0.5,3.6,1.2,5,1.8c1.4,0.7,2.6,1.4,3.5,2.3s1.6,1.8,2,2.8c0.4,1,0.7,2.2,0.7,3.6c0,1.4-0.3,2.6-0.8,3.8
		c-0.6,1.1-1.4,2.1-2.4,2.9c-1,0.8-2.3,1.4-3.7,1.8s-3.1,0.6-4.9,0.6c-1,0-2.1-0.1-3.1-0.3c-1-0.2-2-0.5-3-0.9s-1.8-0.9-2.7-1.5
		c-0.8-0.6-1.5-1.2-2.1-2s-1.1-1.6-1.4-2.6c-0.3-1-0.5-2-0.5-3.1h4.5c0,1.2,0.2,2.2,0.7,3s1.1,1.5,1.8,2.1c0.8,0.5,1.7,0.9,2.7,1.2
		c1,0.3,2.1,0.4,3.2,0.4c2.4,0,4.2-0.5,5.5-1.5S148.2,190.4,148.2,188.7z"/>
</g>
<g>
	<path class="st2" d="M94.4-36c6.6,0,13.2,0,19.8,0c3.1,0,5.9,0.7,8.3,2.6c3.5,2.7,5.3,6.3,5.3,10.7c0,13.4,0,26.7,0,40.1
		c0,4.7-2,8.7-5.3,12c-14.5,14.5-29,29-43.6,43.6c-3.7,3.7-7.4,7.6-11.2,11.1c-4.2,3.9-9.4,5.2-15.1,4.5c-4.2-0.6-7.8-2.5-10.8-5.5
		C30.5,71.8,19.2,60.5,7.9,49.2c-2.7-2.7-4.2-6.1-4.6-9.9c-0.8-6.7,1.6-12.2,6.3-17C27.3,4.6,45-13.1,62.6-30.9
		c3.4-3.5,7.5-5.1,12.3-5.1C81.4-36,87.9-36,94.4-36z M94.3-30.6c-6.5,0-12.9,0-19.4,0c-3.4,0-6.2,1.2-8.6,3.6
		C49.7-10.5,33.2,6,16.7,22.5c-1.5,1.5-3.1,3-4.6,4.6c-5.1,5.5-5.2,14,0.2,19.2c3,2.9,5.9,5.9,8.9,8.9c8.1,8.1,16.2,16.2,24.3,24.3
		c3,3.1,6.7,4.4,11,4c3.5-0.3,6.5-1.9,9-4.4c4.8-4.8,9.7-9.7,14.5-14.5c13.2-13.1,26.4-26.3,39.5-39.4c2.2-2.2,3.2-4.8,3.2-7.9
		c-0.1-12.9-0.1-25.8-0.2-38.7c0-0.8,0-1.7-0.1-2.5c-0.2-1.9-1-3.5-2.4-4.7c-1.7-1.5-3.6-2.1-5.9-2.1
		C107.6-30.6,100.9-30.6,94.3-30.6z"/>
	<path class="st2" d="M92.5-16.9c8.7,0.2,16.3,6.8,16.3,16.5c0,8.8-7,16.7-17,16.4c-8.7-0.2-16.1-7.9-15.9-16.7
		C76.2-10.4,84-16.8,92.5-16.9z M103.6,0.1c0.5-5.9-4.2-11.3-10.2-11.8c-6.2-0.5-11.7,4-12.2,10.3C80.7,4.8,85,10.4,91.8,10.8
		C98.4,11.1,103.3,6.2,103.6,0.1z"/>
</g>
</svg>
